<?xml version="1.0" encoding="UTF-8"?>
<svg id="Layer_2" data-name="Layer 2" xmlns="http://www.w3.org/2000/svg" viewBox="0 0 98.61 91.33">
  <defs>
    <style>
      .cls-1 {
        fill: #579dd6;
      }
    </style>
  </defs>
  <g id="_ヘッダー" data-name="ヘッダー">
    <g>
      <path class="cls-1" d="M75.27,23.75l-2.45,6.13,1.77-.22c6.13-.77,12-3.06,14.78-4.26,2.65-.95,4.93-2.56,6.58-4.66,1.65-2.11,2.66-4.74,2.66-7.57,0-1.86-.43-3.63-1.19-5.22-1.15-2.39-3.03-4.37-5.35-5.76C89.74,.8,86.96,0,83.97,0c-3.97,0-7.6,1.42-10.26,3.77-1.33,1.17-2.42,2.58-3.18,4.18-.76,1.59-1.19,3.36-1.19,5.22,0,2.37,.7,4.59,1.89,6.49,1.02,1.62,2.4,3.01,4.04,4.09Zm-2.94-14.72c.92-1.93,2.49-3.61,4.51-4.82,2.02-1.21,4.47-1.92,7.13-1.92,3.54,0,6.73,1.27,8.99,3.27,1.13,1,2.03,2.18,2.65,3.46,.61,1.29,.95,2.68,.95,4.14,0,2.23-.78,4.3-2.15,6.07-1.38,1.76-3.36,3.18-5.72,4.01h-.03s-.03,.02-.03,.02c-2.41,1.05-7.28,2.95-12.47,3.85l1.76-4.38-.86-.49c-1.74-1-3.17-2.35-4.15-3.91-.98-1.56-1.52-3.31-1.52-5.17,0-1.46,.33-2.86,.95-4.14Z"/>
      <path class="cls-1" d="M78.21,15.26c.88,0,1.59-.8,1.59-1.77s-.71-1.78-1.59-1.78-1.59,.8-1.59,1.78,.71,1.77,1.59,1.77Z"/>
      <path class="cls-1" d="M84.33,15.26c.88,0,1.59-.8,1.59-1.77s-.71-1.78-1.59-1.78-1.59,.8-1.59,1.78,.71,1.77,1.59,1.77Z"/>
      <path class="cls-1" d="M90.46,15.26c.88,0,1.59-.8,1.59-1.77s-.71-1.78-1.59-1.78-1.59,.8-1.59,1.78,.71,1.77,1.59,1.77Z"/>
      <path class="cls-1" d="M46.73,46.61c0-5.25-3.08-9.58-8.97-10.55-.81,.27-1.68,.42-2.57,.42s-1.77-.15-2.58-.42c-5.89,.97-8.97,5.3-8.97,10.55h23.1Z"/>
      <path class="cls-1" d="M35.18,34.61c3.49,0,6.32-2.83,6.32-6.32v-1.79c0-3.49-2.83-6.32-6.32-6.32s-6.32,2.83-6.32,6.32v1.79c0,3.49,2.83,6.32,6.32,6.32Z"/>
      <path class="cls-1" d="M73.39,46.61c0-5.25-3.08-9.58-8.97-10.55-.81,.27-1.68,.42-2.58,.42s-1.76-.15-2.58-.42c-5.89,.97-8.97,5.3-8.97,10.55h23.1Z"/>
      <path class="cls-1" d="M61.84,34.61c3.49,0,6.32-2.83,6.32-6.32v-1.79c0-3.49-2.83-6.32-6.32-6.32s-6.32,2.83-6.32,6.32v1.79c0,3.49,2.83,6.32,6.32,6.32Z"/>
      <path class="cls-1" d="M81.73,52.42c-.33-.77-1.09-1.27-1.92-1.27H17.59c-.84,0-1.59,.5-1.93,1.27L.17,88.41c-.28,.65-.21,1.39,.17,1.98,.39,.59,1.04,.94,1.75,.94H31.28c2.49-4.21,6.79-7.27,12.82-8.26,1.39,.46,2.87,.72,4.41,.72s3.02-.26,4.41-.72c6.03,.99,10.32,4.05,12.82,8.26h29.55c.7,0,1.36-.36,1.75-.94,.39-.59,.45-1.33,.17-1.98l-15.49-35.98Zm-22.39,17.34c0,5.98-4.84,10.82-10.82,10.82s-10.82-4.84-10.82-10.82v-3.07c0-5.98,4.84-10.82,10.82-10.82s10.82,4.84,10.82,10.82v3.07Z"/>
    </g>
  </g>
</svg>