<?xml version="1.0" encoding="UTF-8"?>
<svg id="Layer_2" data-name="Layer 2" xmlns="http://www.w3.org/2000/svg" viewBox="0 0 32.92 50.01">
  <defs>
    <style>
      .cls-1 {
        fill: #fff;
      }
    </style>
  </defs>
  <g id="_ヘッダー" data-name="ヘッダー">
    <g>
      <path class="cls-1" d="M31.64,5.46c-.52-.37-1.13-.56-1.75-.56-.34,0-.68,.06-1,.17l.06-.02L8.93,12.05c-1.05-.07-2.03-.3-2.69-.6-.35-.16-.61-.33-.75-.47-.07-.07-.11-.12-.12-.15v-.03s-.01,0-.01,0c-.11-.68-.76-1.14-1.44-1.03-.68,.12-1.14,.76-1.03,1.44,.11,.65,.46,1.18,.88,1.57,.63,.59,1.42,.98,2.31,1.27,.9,.28,1.9,.46,2.96,.51h.24S29.65,7.46,29.65,7.46l.06-.02c.06-.02,.11-.03,.17-.03,.11,0,.21,.03,.3,.1,.14,.1,.22,.26,.22,.43v30.21c0,.98-.62,1.85-1.54,2.17l-20.23,7.08-.04,.02c-.13,.05-.31,.09-.54,.09-.44,0-1.07-.15-1.74-.44-1-.43-2.06-1.15-2.81-1.83-.38-.34-.68-.67-.86-.91-.08-.1-.12-.18-.15-.23,0-.06,0-.13,0-.23,.01-1.13,.02-4.63,.02-8.98,0-9.93-.03-24.23-.03-24.23v-.46c0-.22,.14-.42,.35-.49L23.45,2.44c.65-.23,1-.95,.77-1.6-.23-.65-.95-.99-1.6-.76L2.03,7.34h0c-1.22,.42-2.03,1.57-2.03,2.86v.46H0s0,.9,0,2.39c0,4.49,.02,14.39,.02,21.84,0,2.48,0,4.69,0,6.33,0,.82,0,1.5,0,2,0,.25,0,.45,0,.61,0,.15,0,.26,0,.28H0s0,.08,0,.08c0,.5,.17,.84,.34,1.15,.31,.54,.74,1.03,1.27,1.54,.79,.75,1.81,1.5,2.92,2.09,1.11,.58,2.3,1.03,3.54,1.04,.48,0,.97-.08,1.44-.27h0s20.19-7.06,20.19-7.06c1.93-.68,3.22-2.5,3.22-4.54V7.93c0-.98-.48-1.9-1.28-2.47Z"/>
      <path class="cls-1" d="M7.05,10.39c.12,.33,.47,.5,.8,.38L26.1,4.39c.33-.11,.5-.47,.38-.8-.11-.33-.47-.5-.8-.38L7.44,9.59c-.33,.11-.5,.47-.38,.8Z"/>
    </g>
  </g>
</svg>