<?xml version="1.0" encoding="UTF-8"?>
<svg id="Layer_2" data-name="Layer 2" xmlns="http://www.w3.org/2000/svg" viewBox="0 0 65.33 36.73">
  <defs>
    <style>
      .cls-1 {
        fill: #fff;
      }
    </style>
  </defs>
  <g id="_レイヤー_5" data-name="レイヤー 5">
    <g>
      <path class="cls-1" d="m57.04,8.17c0,3.83-3.13,6.96-6.96,6.96h0c-3.83,0-6.96-3.13-6.96-6.96v-1.22c0-3.83,3.13-6.96,6.96-6.96h0c3.83,0,6.96,3.13,6.96,6.96v1.22Z"/>
      <path class="cls-1" d="m57,18.22c-3.34-.62-4.85-.7-6.92-.7s-3.58.08-6.92.7c-.17.03-.34.07-.52.11-.54,1.89-1.65,3.55-3.13,4.76.44.07.9.15,1.4.25,1.39.26,4.07.94,6.41,2.6,1.3.92,2.29,2.01,2.96,10.76h15.05v-11.15c0-4.58-4.98-6.71-8.33-7.33Z"/>
      <path class="cls-1" d="m8.29,8.17c0,3.83,3.13,6.96,6.96,6.96h0c3.83,0,6.96-3.13,6.96-6.96v-1.22c0-3.83-3.13-6.96-6.96-6.96h0c-3.83,0-6.96,3.13-6.96,6.96v1.22Z"/>
      <path class="cls-1" d="m8.33,18.22c3.34-.62,4.85-.7,6.92-.7s3.58.08,6.92.7c.17.03.34.07.52.11.54,1.89,1.65,3.55,3.13,4.76-.44.07-.9.15-1.4.25-1.39.26-4.07.94-6.41,2.6-1.3.92-2.29,2.01-2.96,10.76H0v-11.15c0-4.58,4.98-6.71,8.33-7.33Z"/>
      <path class="cls-1" d="m39.65,15.75c0,3.83-3.13,6.96-6.96,6.96h0c-3.83,0-6.96-3.13-6.96-6.96v-1.22c0-3.83,3.13-6.96,6.96-6.96h0c3.83,0,6.96,3.13,6.96,6.96v1.22Z"/>
      <path class="cls-1" d="m39.61,25.8c-3.34-.62-4.85-.7-6.92-.7s-3.58.08-6.92.7-8.33,2.75-8.33,7.33v3.6h30.5v-3.6c0-4.58-4.98-6.71-8.33-7.33Z"/>
    </g>
  </g>
</svg>