<?xml version="1.0" encoding="UTF-8"?>
<svg id="Layer_2" data-name="Layer 2" xmlns="http://www.w3.org/2000/svg" viewBox="0 0 88.47 73.18">
  <defs>
    <style>
      .cls-1 {
        fill: #a56aa9;
      }
    </style>
  </defs>
  <g id="_ヘッダー" data-name="ヘッダー">
    <g>
      <rect class="cls-1" x="19.7" y="19.69" width="14.07" height="53.47"/>
      <path class="cls-1" d="M61.81,28.14c-.75,1-1.15,2.21-1.15,3.48,0,1.56,.6,3.01,1.7,4.11,1.1,1.1,2.56,1.7,4.11,1.7s3.01-.6,4.11-1.69c2.07-2.07,2.25-5.32,.53-7.6h-9.3Z"/>
      <path class="cls-1" d="M59.09,50.08v23.09h14.07v-22.84c-2.12,.76-4.39,1.15-6.7,1.15-2.56,0-5.07-.49-7.37-1.41Z"/>
      <path class="cls-1" d="M46.61,31.62c0-5.3,2.05-10.29,5.81-14.04,.34-.34,.68-.66,1.04-.96V0h-14.07V73.18h14.07v-26.54c-.37-.3-.7-.62-1.04-.96-3.76-3.76-5.81-8.74-5.81-14.06Z"/>
      <rect class="cls-1" y="45.02" width="14.07" height="28.14"/>
      <path class="cls-1" d="M87.2,47.5l-7.59-7.4c1.62-2.5,2.5-5.42,2.5-8.48,0-4.18-1.63-8.11-4.58-11.06-2.95-2.95-6.88-4.58-11.06-4.58s-8.11,1.63-11.06,4.58c-2.95,2.95-4.58,6.88-4.58,11.06s1.62,8.11,4.57,11.06c2.95,2.95,6.88,4.58,11.06,4.58,3.06,0,5.98-.88,8.48-2.5l7.39,7.59c1.38,1.66,3.41,1.76,4.98,.19,1.57-1.57,1.54-3.67-.12-5.05Zm-20.73-7.48c-2.24,0-4.35-.87-5.94-2.46-1.58-1.58-2.46-3.69-2.46-5.93s.87-4.35,2.46-5.93c1.59-1.58,3.69-2.46,5.94-2.46s4.35,.87,5.93,2.46c3.27,3.27,3.27,8.6,0,11.87-1.58,1.58-3.69,2.46-5.93,2.46Z"/>
    </g>
  </g>
</svg>