<?xml version="1.0" encoding="UTF-8"?>
<svg id="Layer_2" data-name="Layer 2" xmlns="http://www.w3.org/2000/svg" viewBox="0 0 94.88 82.67">
  <defs>
    <style>
      .cls-1 {
        fill: #172a84;
      }
    </style>
  </defs>
  <g id="_ヘッダー" data-name="ヘッダー">
    <g>
      <path class="cls-1" d="M15.09,15.57c4.3,0,7.78-3.49,7.78-7.78S19.39,0,15.09,0,7.31,3.48,7.31,7.79s3.48,7.78,7.79,7.78Z"/>
      <path class="cls-1" d="M41.54,39.3c0-.16-.03-.31-.05-.46l11.63-8.44c.73-.53,.89-1.56,.36-2.29-.31-.42-.8-.68-1.33-.68-.35,0-.68,.11-.96,.31l-11.65,8.46c-.43-.2-.91-.32-1.42-.32h-6.33l-1.54-8.75c-.84-4.41-2.61-7.88-6.39-7.88H7.88c-3.77,0-7.88,4.1-7.88,7.88v26.17c0,1.89,1.53,3.42,3.41,3.42h2.38l1.3,22.32c0,2.01,1.63,3.63,3.64,3.63h7.27c2.01,0,3.63-1.63,3.63-3.63l1.71-44.2h.09l.98,4.31c.32,2.06,2.09,3.57,4.17,3.57h9.55c1.89,0,3.41-1.53,3.41-3.41Zm-28.93-4.85v-12.44h4.47v12.44l-2.37,2.8-2.1-2.8Z"/>
      <polygon class="cls-1" points="35.27 2.69 35.27 31.12 39.74 31.12 39.74 7.16 90.41 7.16 90.41 49.88 39.74 49.88 39.74 44.5 35.27 44.5 35.27 54.35 94.88 54.35 94.88 2.69 35.27 2.69"/>
      <path class="cls-1" d="M57.78,65.9c0-3.48-2.82-6.31-6.31-6.31s-6.31,2.82-6.31,6.31,2.82,6.31,6.31,6.31,6.31-2.82,6.31-6.31Z"/>
      <path class="cls-1" d="M51.47,75.59c-4.5,0-8.31,2.95-9.78,7.08h19.56c-1.47-4.13-5.29-7.08-9.78-7.08Z"/>
      <path class="cls-1" d="M84.98,65.9c0-3.48-2.82-6.31-6.31-6.31s-6.31,2.82-6.31,6.31,2.82,6.31,6.31,6.31,6.31-2.82,6.31-6.31Z"/>
      <path class="cls-1" d="M78.67,75.59c-4.5,0-8.31,2.95-9.78,7.08h19.56c-1.47-4.13-5.29-7.08-9.78-7.08Z"/>
    </g>
  </g>
</svg>