<?xml version="1.0" encoding="UTF-8"?>
<svg id="Layer_2" data-name="Layer 2" xmlns="http://www.w3.org/2000/svg" viewBox="0 0 705.47 444.45">
  <defs>
    <style>
      .cls-1 {
        fill: #5d7cbc;
      }

      .cls-2 {
        fill: #fff;
        font-family: KozGoPr6N-Bold-90ms-RKSJ-H, 'Kozuka Gothic Pr6N';
        font-size: 34px;
        font-weight: 700;
        letter-spacing: .04em;
      }
    </style>
  </defs>
  <g id="_ヘッダー" data-name="ヘッダー">
    <g>
      <path class="cls-1" d="m155.08,13.25c-.46.29-.46.87-1.45.98-.98.12-2.14.64-2.72,0s-1.33-2.95-1.68-3.87c-.35-.93-.81-2.25-1.27-2.25s-1.33,1.56-1.73,2.6c-.4,1.04-.58,1.91-.35,2.72.23.81.92,2.6,1.45,3.12.52.52,1.16.98.81,1.91-.35.92-.58,2.31-1.16,3.01-.58.69-.84,1.1-1.2,1.62-.36.52-.53,1.56-.53,2.14s.23,1.16-.35,1.68c-.58.52-1.68,2.6-2.08,3.18-.4.58-1.21,1.16-1.39,2.08-.17.92-.06,5.09.29,6.76.35,1.68,2.43,5.14,2.43,5.14,0,0,4.62,10.52,5.09,11.91.46,1.39,4.43,11.22,4.51,12.06.08.85.54,2.93.85,3.62.31.69,1.39,6.71,1.62,7.25.23.54,2.16,10.14,2.16,11.64s-.23,4.16,0,5.2c.23,1.04.17,7.57,0,8.44-.17.87-.98,1.73-1.45,2.43-.46.69-.56,2.12-.48,3.28.08,1.16-.15,5.31-.23,6.51-.08,1.2-.96,3.57-1.25,4.32-.29.75-1.45,2.77-1.97,3.18-.52.4-1.33,1.1-1.48,2.02-.15.93-1.16,2.62-1,3.31.15.69-.54.9-1,1.61-.46.7-.39,1.01-1,1.63-.62.62-1.85.23-2,.85-.15.62.39,4.24.39,4.47s.62,3.31.23,4.39c-.39,1.08.5,6.4.38,7.05-.12.66-.96,2.66-.69,3.51.27.85,1.39,10.29.92,11.56-.46,1.27-1.16,3.47-1.39,4.91-.23,1.45-1.73,6.71-2.25,7.4-.52.69-.81,1.39-1.16,1.97-.35.58-1.68,2.22-2.52,2.68-.85.46-1.46,1.46-2,1.46s-.92-1.08-1.39-.85c-.46.23-1.23.39-1.46.85-.23.46-.15,1.46-.92,1.7-.77.23-2.16-.46-2.85,0-.69.46-2.54,1.85-3.62,2-1.08.15-2.74,1.7-2.85,2.51-.12.81-1.04,3.24-1.5,3.82-.46.58-1.27,2.37-1.62,2.89-.35.52-1.04,2.2-.69,2.95.35.75,2.08,2.89,2.14,4.05.06,1.16-.06,2.31,0,3.01.06.69.58,2.66.98,2.95.4.29,1.1.29,1.27,1.1.17.81.69,1.56.4,2.6-.29,1.04-1.6,3.74-1.68,4.36-.08.62-.58,2.58-.23,3.35.35.77,1.56,3.04,1.97,3.45.4.4,1.33,2.14,1.56,3.01.23.87.81,2.78,1.33,3.35.52.58.52,1.16.46,2.2s-.5,3.68-.5,5.03.08,2.81-.23,3.28c-.31.46-4.01,6.32-4.62,6.67-.62.35-1.41,1.68-1.93,2.31-.52.64-3.18,4.22-4.8,5.32-1.62,1.1-7.63,4.57-8.04,4.68s-1.21.64-1.97,0c-.75-.64-5.55-3.64-6.3-3.7-.75-.06-2.25-.23-2.72-.46-.46-.23-2.49-.4-2.43-1.1.06-.69,1.62-2.14,1.73-2.6s-.58-2.49-1.1-2.49-2.54.17-3.12.46c-.58.29-.55,1.1-1.13,1.21-.58.12-1.53.03-2.2.26-.66.23-3.84,2.17-4.71,2.28-.87.12-1.91.75-3.01.75s-2.77,0-3.47-.52c-.69-.52,0-2.49-.4-2.72-.4-.23-1.5.23-1.91-.12-.4-.35-.87-1.85-1.85-2.02-.98-.17-5.82-1.83-6.44-1.91-.62-.08-.92-.77-.69-1.08.23-.31,1-.54.77-.85-.23-.31-1.31-1.46-1.7-1.46s-1.31.39-1.77-.08c-.46-.46-3.55-3.55-4.39-4.32-.85-.77-3.16-3.7-3.78-3.85-.62-.15-2.39-.31-2.7-.15-.31.15.39,1.54,0,1.85-.39.31-1.62,2.39-2.54,2.85-.93.46-3.62.39-4.16.31-.54-.08-1.7-.69-2-.31-.31.39.62.85.39,1.62-.23.77-1,3.93-1.46,5.01-.46,1.08-.85,2.16-1.08,2.93-.23.77-.62,2.16,0,3.01.62.85,1.31,1.31,1.54,2,.23.69,1.31,2.54,2,3.01.69.46,3.01,2.2,3.7,2.49.69.29,1.16,1.14,1.7,2.06.54.92,1.54,2.24,1.54,2.47s-.46,1.54.15,1.93c.62.39,1.7.77,2.08,1.39.39.62.85,2,1.08,2.47s1.39,1.39,1.77,1.7c.39.31.92.77.62,1.54-.31.77-.69,2.39-.85,2.62-.15.23-3.2,2.72-4.47,3.12-1.27.4-2.47,1.35-3.01,1.73-.54.39-2,1.85-2.7,2.93-.69,1.08-2.16,3.47-2.47,4.47-.31,1-1,2.23-1.77,2.85-.77.62-2,.62-2.31,1.7-.31,1.08-.08,4.93-.39,5.4-.31.46-.62.93-1.31,1.08-.69.15-1.77,1.31-2.39.69-.62-.62-.69-1.54-1.16-2.47-.46-.92-3.08-3.93-3.78-3.85-.69.08-3.08,4.01-3.24,4.86-.15.85,0,2.24-.54,2.7-.54.46-3.74,1.73-4.66,2.2-.92.46-1.5,1.16-1.73,1.97-.23.81,0,1.39-1.39,1.97-1.39.58-2.54.81-3.93.69-1.39-.12-4.86.12-6.01.58-1.16.46-4.16,2.89-5.2,4.05-1.04,1.16-1.73,1.73-2.08,3.01-.35,1.27.69,3.47.58,4.74-.12,1.27,1.08,6.94,1.08,8.4s.08,5.78-.08,6.94-2.31,6.32-2.93,7.01c-.62.69-1.54.85-1.85,1.23-.31.39-1.31,3.85-1,4.86.31,1,1.46,2,1.23,2.77-.23.77-1.23.93-.77,2,.46,1.08,1.31,3.89,2.58,4.24,1.27.35,4.39.69,4.97,1.04.58.35,0,.69.46,1.97.46,1.27,2.08,3.35,2.77,4.51.69,1.16.81,2.43,1.85,2.43s4.86-.12,5.55.69c.69.81,2.66,2.43,3.58,3.93.92,1.5,2.66,5.55,3.47,6.59.81,1.04,2.08,2.2,2.31,3.24.23,1.04-.23,2.89,0,3.53.23.64.98,1.68,1.21,2.31.23.64-.29,2.2-.46,3.01-.17.81-.81,3.06-1.21,3.35-.4.29-.52,1.16-.52,1.79s.35,3.41-.06,3.93c-.4.52-.87.98-1.21.98s-1.62-.46-1.97-.29c-.35.17-.98.81-.87,1.45.12.64.75,2.43.23,3.47-.52,1.04-1.91,3.06-2.37,3.87-.46.81-2.02,2.89-2.31,3.7-.29.81-.87,2.43-.98,3.12-.12.69-.58,3.12-1.04,4.16-.46,1.04-.58,2.43-.58,3.47s-.46,3.12.12,3.82c.58.69,1.16,1.39,1.62,2.66.46,1.27.69,3.7,1.04,4.74.35,1.04.46,2.43,1.5,3.35,1.04.93,1.19,1.35,1.73,1.97.54.62.31.69,1.16,1.16.85.46,1.39.62,2.16.39.77-.23,1.85-.85,2.7-.62.85.23,1.77-.02,2.31.72.54.74,1.31,1.59,1.85,1.9.54.31,1.08.77,1.77.31.69-.46,1.46-1.31,1.77-1.77.31-.46.93-2.93,1.16-3.24.23-.31.77-2.39,1.46-3.16.69-.77,7.19-3.26,7.53-3.43.35-.17,1.04-.92,1.85-.87.81.06,1.91.06,2.31-.23.4-.29,2.08-2.31,2.2-2.49.12-.17.46-1.1.35-1.68-.12-.58-.64-1.16-.64-2.08s.12-9.31.35-9.89c.23-.58,1.39-2.83,2.2-2.89.81-.06,4.39-.35,4.86-.35s1.45-1.85,1.97-2.08c.52-.23,2.6-1.91,3.35-1.97.75-.06,1.1.12,1.16-.64.06-.75-.29-1.27.12-2.25.4-.98,1.16-1.45,1.27-2.08.12-.64-.58-.64-.29-1.62.29-.98,1.56-2.08,2.45-2.12.89-.04,1.89-.31,2.81.23.92.54,2.04,1.16,2.43,2,.39.85.69,1.93.42,2.47-.27.54-1.73,1.73-1.89,2.04-.15.31-.65.93-.42,1.31.23.39.42.73.77.58.35-.15,1.12-.81,1.46-1.12.35-.31.85-1.5,1.16-1.62.31-.12.39-.62,1.08-.73.69-.12,2.16-.13,3.2.31,1.04.43,1.97.72,2.6.92.64.2,1.16.09,2.34.43,1.18.35,5.49,2.02,6.24,2.69.75.66,1.19,1.5,1.5,1.79.32.29.52.61,1.07.61s3.01-.14,3.9-.52c.9-.38,4.58-2.34,4.73-2.73.15-.39.46-1.08.85-1.77.39-.69,1.08-2,1.39-2.31.31-.31.08-1.08,1.08-1,1,.08,1.16.77,2.08.62s1.39-.77,2-1c.62-.23,1.23-.77,1.39-1.31.15-.54-.15-1.85-.46-2-.31-.15-2.39-.15-2.7-1.16-.31-1,.23-1.54.31-1.93.08-.39-.15-.62-.81-.89-.66-.27-1.46-.96-2.27-1.46-.81-.5-3.01-1.89-4.62-2.12-1.62-.23-2.16.31-2.77,0-.62-.31-1.93-1.36-2.7-1.36s-1.31.2-2.31-.88c-1-1.08-1.7-3.08-2.24-3.93-.54-.85-3.78-5.4-4.39-5.63-.62-.23-1-.08-2.08-.93-1.08-.85-3.16-2.85-3.31-3.47-.15-.62-.46-1.54-.85-2-.39-.46-2.08-.92-2.16-2-.08-1.08-.31-2.39-.85-2.93-.54-.54-2-.54-2.39-1.23s-.46-1.16-1.08-1.23c-.62-.08-.77,1.08-2.16,1.23-1.39.15-2.31-.31-3.08-.23-.77.08-2.24,1.23-3.31,1.7-1.08.46-3.78.39-4.39-.15-.62-.54-6.17-5.32-6.63-5.86-.46-.54-.23-1.08-1.16-1.39-.92-.31-1.77-.85-2.39-1.7-.62-.85-1.08-2.24-2-2.39-.93-.15-2.08-.08-2.93-.46-.85-.39-3.08-.31-3.93-1.46-.85-1.16-2.31-3.39-2.08-4.93.23-1.54,1.85-10.6,2.77-12.91.92-2.31,5.2-10.75,6.59-12.26,1.39-1.5,4.39-5.32,4.97-5.67.58-.35,1.62-.81,2.08-.46.46.35,1.45.52,1.79.17.35-.35.52-.87,1.04-.75.52.12,1.21.69,1.56.87.35.17,1.56,1.33,2.14,1.45.58.12,1.79-.06,2.31-.29.52-.23,1.27-.81,2.08-1.1.81-.29,3.64-.66,4.49-.5.85.15,2.16,1.08,2.7,1.46.54.39,2.31,2.39,3.08,2.93.77.54,1,1.08,1.23,1.62.23.54.06,1.95.66,2.58s1.42,1.5,2.34,1.97c.93.46,1.33,1.45,1.73,1.68.4.23,1.39.35,1.73.46.35.12,1.21,1.04,1.56,1.73.35.69,1.04,2.31,1.56,3.99s-.23,2.66.35,3.53c.58.87,2.02,1.33,2.77,1.45.75.12,2.72.52,3.24.75.52.23,1.1.81,1.16,1.21.06.4-.52,1.16-.52,1.16,0,0-1.5-.92-2.25-.98-.75-.06-1.73.06-1.97.4-.23.35-.64.98-.12,1.45.52.46,1.85,1.21,2.37,1.5.52.29,1.45,1.04,1.85,1.21.4.17,1.45.17,1.73,0,.29-.17.58-1.16.58-1.16,0,0,3.35-5.32,4.34-6.47.98-1.16,5.14-6.3,6.07-6.65.93-.35,2.77-1.04,3.82-1.56,1.04-.52,4.34-3.24,5.49-4.45,1.16-1.21,3.64-3.47,4.51-4.05.87-.58,1.39-.12,1.73-.64.35-.52.98-1.21,1.45-1.62.46-.4,5.03-2.77,6.19-3.41,1.16-.64,6.07-2.31,6.65-2.72.58-.4,8.04-1.97,10.46-1.97s9.09,1.16,10.44,1.5,8.17,3.78,8.48,4.39c.31.62.21,1.62.79,1.91.58.29,1.62.98,2.83,1.73,1.21.75.81,2.2,2.31,2.72,1.5.52,2.66,1.5,3.18,2.08.52.58.98,1.39,1.68,1.5.69.12,1.56,0,1.97.29.4.29-.12.69,1.33.75,1.45.06,3.93.46,5.61,1.16,1.68.69,3.47,2.02,4.28,2.77.81.75,3.82,4.45,4.51,5.14s4.43,3.91,5.13,4.53c.69.62,4.32,2.85,5.16,3.08.85.23,1.54.23,2.08.46.54.23,2,1.46,2.39,1.85.39.39,1.16,1.85,1.54,2.16.39.31,1,.46,1.85.69.85.23,2.05,1.16,2.57,1.31.52.15,2.21-.15,3.44.62,1.23.77,3.31,2.24,4.09,2.77.77.54,2.85,2.62,2.85,2.62,0,0,2.47.46,3.47.85,1,.39,2.08.62,3.16,1.31,1.08.69,2.7,2.08,3.24,2.47.54.39,1.23,1.16,2.16,1.39.92.23,1.23-.23,2.47.08,1.23.31,2.39.85,3.24,1,.85.15,3.89.04,4.47.39.58.35,1.16,1.16,1.5,1.85.35.69,3.47,2.2,4.97,3.12,1.5.93,4.39,2.89,5.9,3.7,1.5.81,2.97,3.04,3.35,4.28.39,1.23.46,2.16,1.23,2.7.77.54,2.16,1.77,2.77,2.16.62.39,1.39,1.54,2.08,1.7s1,0,1-1.23,0-3.01.39-3.47c.39-.46.69-1.08.77-1.62.08-.54-1.31-.39,0-1.39,1.31-1,2.85-2.85,3.31-3.16.46-.31,1.08-1.54,1.08-1.85s-.31-.93-.31-2.08,1.08-3.16,1-3.7c-.08-.54-.46-1.77-.46-2.24s1.54-5.01,1.54-5.78-.31-1.7-.85-2.77c-.54-1.08-1.93-2.54-1.62-3.47.31-.93.85-2.16.92-3.16.08-1-.54-1.46.23-2.7.77-1.23,6.26-13.89,7.3-15.51,1.04-1.62,13.12-19.13,15.09-20.75s9.6-10.06,11.1-11.56c1.5-1.5,12.26-12.26,14.11-13.64,1.85-1.39,3.7-1.97,4.86-2.89,1.16-.92,3.12-2.43,4.05-3.01.92-.58,3.82-1.39,4.16-1.62.35-.23,2.54-1.85,3.58-2.31,1.04-.46,6.9-2.62,8.83-2.78,1.93-.15,5.63-.08,5.93.08.31.15,1.62.69,2.24,1.46.62.77.15,1.77.92,2.24.77.46,2.62,1,4.09,1.54,1.46.54,2.97,1.54,3.93,1.46.96-.08,2.2-.69,2.62-.93.42-.23,1.89-.73,2.62-.69.73.04,6.47-.31,7.01,0,.54.31,3.08,1.46,3.7,1.54.62.08,4.16.31,4.78.31s2.47.46,2.77.08c.31-.39.23-.54-1.08-1.39-1.31-.85-3.16-2.08-3.24-2.47-.08-.39-.62-2.08-.39-2.47.23-.39,1.46-2.08,2.7-3.47,1.23-1.39,1.85-2.54,2.62-2.7.77-.15,2.39-.39,3.08-.23.69.15,1.39,1.04,1.81.85.42-.19-.04-.81,0-1.43.04-.62.09-2.04.18-2.35.09-.31.28-.85.48-.85s.5.04.58.46c.08.42-.58,1.19,0,1.5s.96.27,1.81.27,1.23-.04,2,.31c.77.35,2.16,1.04,2.35,1.81.19.77-.35,1.54-.54,1.81-.19.27-1,1.27-2.08,1.39-1.08.12-2.2-.08-2.54-.39-.35-.31-.96-.66-1.12-1.23-.15-.58-.15-1.35-.31-1.35s-.54.39-.81.62c-.27.23-.96.5-1.04.96-.08.46-.19,1.39-.12,1.7.08.31.23.69.58.81.35.12,1.08.39,1.35.62.27.23.73,1.62,1.16,1.85.42.23.93-.12,1.39-.23.46-.12,2.66-.19,3.47.15.81.35,1.79.71,2.72.37.92-.35,2.89-1.33,3.3-1.62.4-.29.93-1.16.93-1.68s-1.21-2.08-1.73-2.72c-.52-.64-1.33-.92-1.33-1.39s-.12-.98.75-.58c.87.4,1.68.87,1.97,1.21.29.35.64,1.73.98,1.79.35.06,1.27-.23,1.85-.46.58-.23,1.79-.75,1.91-1.04.12-.29.12-1.79.35-2.25.23-.46,1.73-.92,2.2-1.27,0,0,.39-.32.27-.61-.12-.29-.38-.23-.47-.75-.09-.52-.34-3.11-.07-3.61.27-.5,2.62-2.24,2.97-2.39.35-.15,1.31-.15,1.58-.04.27.12.62.89,1,1,.39.12,1.93.31,2.51-.04.58-.35,3.08-2.12,3.58-2.43.5-.31,1.62-1.08,2.04-1.08s.81.04,1.43.19c.62.15.93.08,2-.39,1.08-.46,6.05-1.54,7.09-1.58,1.04-.04,3.51-.15,3.89-.04.39.12,1.16.69,1.5,1,.35.31,1.04,2.12,1.46,2.35.42.23,1.23.35,1.54-.19.31-.54.97-5.34,1.6-6.49.52-.95,1.75-.85,1.75-2.06s-.51-4.43.54-4.66c0,0,1.66-.42,2-1.04.35-.62.39-.85.42-1.23.04-.39-.39-1.04.15-1.31.54-.27,1.19-.46,1.89-.54.69-.08,2.43.31,3.28-.19.85-.5,1.97-1.39,2.43-1.46.46-.08,1,.27,1.39.39.39.12.89.04,1.43-.23.54-.27,3.74-2.93,4.12-3.24.39-.31.58-.39.46-.73-.12-.35.27-.81.46-.96.19-.15.89-1.08.96-1.43.08-.35-.23-1.04-.42-1.04s-.62.39-1.31.35c-.69-.04-1.66-.39-2.16-.46-.5-.08-1.81.04-2.43.19-.62.15-1.5.46-2.35.46s-2.12-.27-2.47-.39c-.35-.12-1.39-.5-1.73-.46-.35.04-1.08,1.43-1.35,1.66-.27.23-2.31,1.58-2.47,1.77-.15.19-.08.5.42.5s.73,0,.62.23c-.12.23-2.47,1.31-2.85,1.7-.39.39-2.66,2.47-3.35,2.93-.69.46-1.75,1.33-2.27,2.08-.52.75-.75,2.6-1.27,2.89-.52.29-2.37.4-2.37.4,0,0-1.21-1.21-1.68-1.39-.46-.17-2.25-.93-2.6-.98-.35-.06-1.45-.29-1.56,0-.12.29.23.46.46.52.23.06,1.97.46,2.14.58.17.12,1.56.98,1.85,1.21.29.23.52.75-.46.69-.98-.06-1.85-.4-2.83-.4s-1.91-.12-2.31-.23c-.4-.12-2.89-1.56-2.89-1.56,0,0-1.16-.4-1.33-.17-.17.23,0,.75-.52.81-.52.06-.98-.23-1.16-.52-.17-.29-.52-.92-.52-1.21s-.06-1.16.17-1.33c.23-.17.75-.12,1.16.12s.75.58,1.04.52c.29-.06,1.1-.69.69-1.04-.4-.35-1.56-.87-1.79-.98-.23-.12-1.73-.52-2.25-.58-.52-.06-2.2.52-2.77.17-.58-.35-1.33-1.16-1.39-1.56-.06-.4.58-1.97.58-1.97,0,0,1.45-.29,1.97-.23.52.06,2.02.46,2.25.58.23.12.98.98,1.1,1.33.12.35.12.98.46,1.21.35.23.92.58,1.39.64.46.06,1.39.12,1.56.17.17.06,2.08,2.66,2.54,2.72.46.06.87,0,.75-.29-.12-.29-1.85-1.79-3.01-3.01-1.16-1.21-2.43-1.85-2.66-2.31-.23-.46-1.85-4.28-2.2-5.38-.35-1.1-1.66-5.49-1.81-7.03-.15-1.54-1-6.32-1.16-7.17-.15-.85-1-2.39-1.39-3.24-.39-.85,0-1.7-.54-2.47-.54-.77-1.54-2.47-1.93-2.77-.39-.31-.08-2.24-.08-2.24,0,0,.81-.19,1.27.08.46.27,1.93,1.04,2.12,1.12.19.08,1.66.15,1.77.27.12.12.23.69.23.96s-.12.77.19.85c.31.08,1.46.12,1.81-.08.35-.19.77-.66,1.12-.5.35.15,1,.58,1.39.85.39.27,1.39.96,1.5,1.19.12.23-.12,1.12-.23,1.35-.12.23-.5,1-.96.62-.46-.39-1.04-1.08-1.54-1.04s-1.73.23-1.81.62c-.08.39-.31.62.12,1.04.42.42,1.12.85,1.54.92.42.08,1.5,0,2.16-.31.66-.31,1.5-.69,1.58-1.12.08-.42-.12-1.81-.12-1.97s-1.04-1.35-1.39-1.58c-.35-.23-3.43-1.77-3.7-1.89-.27-.12-5.01-1.81-5.82-2.16-.81-.35-1.16.04-2.43-.62-1.27-.66-3.43-1.16-3.74-2.62-.31-1.46-1.16-3.47-1.62-4.47-.46-1-1.77-3.24-2.24-3.78-.46-.54-1.23-1.85-1.31-2.24-.08-.39-1.23-4.55-.15-5.47,1.08-.93,1.7-2.16,1.85-2.7.15-.54.46-3.08.39-3.93-.08-.85-.54-1.85,0-2.7.54-.85,1.46-2.28,1.77-3.41.31-1.13.39-2.06,1.08-3.14.69-1.08,4.47-5.63,4.7-6.09.23-.46.93-1.62,1.62-2.16.69-.54,1.62-2.16,1.77-2.85.15-.69.77-4.55.93-5.4.15-.85,2.54-4.32,3.78-5.32,1.23-1,1.93-2.7,2.08-3.39s1.31-2.62,1.62-2.93c.31-.31.46-3.16.77-3.62.31-.46,1-.85,1.08-1.62.08-.77-.54-1.23-.77-1.93-.23-.69-1.31-3.39-1.23-4.16.08-.77.39-2,.15-2.24-.23-.23-.92-.92-1.39-.69-.46.23-1.39,3.16-1.7,3.62-.31.46-3.01,4.01-3.7,4.7-.69.69-1.77.93-2.24,1.7-.46.77-1.31,3.31-1.39,3.7-.08.39-.15,1.93-1.31,2.7-1.16.77-3.62,2.16-3.85,2.47-.23.31-3.55,2.54-4.16,3.24s-2.93,3.55-3.85,3.78c-.92.23-1.7.46-2,.69-.31.23-.77.77-.77,1.16s.31.69-.23,1.31c-.54.62-3.31,2.47-3.85,2.85-.54.39-2.31,1.39-2.39,2-.08.62,0,1.39-.54,2.08-.54.69-2.62,2.7-3.08,3.08-.46.39-1.77.93-1.93,1.23-.15.31-1,.85-1.16,1.16-.15.31-.16,1.39-.47,1.62-.31.23-1.7.2-1.85.43-.15.23-.11,1.05-1.18,1.36-1.08.31-2.66.88-4.74,1.33-2.08.45-5.49.69-8.84.46-3.35-.23-7.34-.35-10.58-1.14-2.38-.58-9.56-2.68-10.37-3.02-.81-.35-4.28-3.58-4.28-3.58l-1.5-2.66s-1.21-2.02-1.39-2.77-.23-3.76-.17-4.51c.06-.75-.52-2.95-.87-3.01-.35-.06-1.39.69-1.79.98-.4.29-2.37,0-2.66.29s-.17,5.03-.35,5.49c-.17.46-.91,1.83-1.68,2.29-.77.46-2.24,1.46-2.77,1.46s-1.93.08-1.93-1.08,0-4.16.31-4.86c.31-.69.69-2.08,1.39-2.24.69-.15,2.24-.39,2.77-.62.54-.23,1.39-.77,1.31-1-.08-.23-5.01-2.47-6.47-2.39-1.46.08-2.24.39-3.62.08-1.39-.31-6.54-1.57-7.7-2.09-1.16-.52-7.22-2.11-7.68-2.34-.46-.23-5.67-2.27-5.9-2.04-.23.23-.69.64-.23.81.46.17,8.05,3.16,8.63,3.39.58.23,2.47.54,3.28.66.81.12,1.5.47,1.79.64.29.17,1.13.35,1.59.35s.91-.25,1.2.16c.29.4-.52.7-.81.93-.29.23-1.02,1.8-1.2,2.09-.17.29-1.03,1.81-1.67,1.63-.64-.17-1.53-1.41-2.05-1.65-.52-.24-1.21-.14-1.56-.14h-1.99c-.69,0-2.46-.35-2.75-.23-.29.12-2.93.81-3.47.73-.54-.08-.85-1.77-1.46-1l-.62.77s-.69-2.31-1-2.16c-.31.15-.92,1.54-1.39,1.46-.46-.08-.54-1.93-.69-2.39-.15-.46-1.16-2.24-1.16-2.24,0,0,.54-.93-.62-1.85s-2.31-1.23-2.08-1.85c.23-.62.54-1.23.54-1.23,0,0,2,.08,2.54.31.54.23.62.85,1.54,1,.93.15,2.62.69,2.77.31.15-.39-.23-.62-.62-1-.39-.39-12.72-5.09-13.8-5.47-1.08-.39-6.09-3.39-6.09-3.39,0,0-9.94-5.11-10.64-6.56-.69-1.45-2.08-3.84-2.08-3.84,0,0-3.39-2.39-4.09-3.01-.69-.62-3.78-2.31-4.01-2.7-.23-.39.62-1-.39-1.62-1-.62-7.67-4.74-8.48-5.67-.81-.93-3.47-2.66-5.2-3.7-1.73-1.04-3.35-2.77-4.16-3.7s-2.08-3.01-2.66-4.16c-.58-1.16-2.77-3.24-3.7-4.51-.92-1.27-5.2-5.43-6.24-6.36-1.04-.93-4.62-3.82-5.09-4.74-.46-.93-3.7-4.39-3.82-5.2-.12-.81-2.2-3.82-3.12-4.97-.92-1.16-1.85-2.62-2.39-3.85-.54-1.23-1.46-2.47-2.39-3.31s-2.62-2.47-2.77-3.31c-.15-.85.69-3.16.23-3.7-.46-.54-2.7-2.54-3.39-3.55-.69-1-.69-3.24-1.23-4.24-.54-1-5.74-5.9-8.29-9.02-2.54-3.12-7.98-8.09-9.83-11.33-1.85-3.24-6.59-9.6-7.63-10.75-1.04-1.16-2.31-3.58-4.39-5.09-2.08-1.5-5.09-3.24-5.67-3.7-.58-.46-2.77-2.08-3.12-3.47-.35-1.39.12-2.2-.69-3.24-.81-1.04-2.08-1.39-2.78-2.2-.69-.81-1.5-3.7-1.73-4.28-.23-.58-1.27-1.5-1.73-1.62-.46-.12-2.77.81-3.24,1.16-.46.35-1.73,2.43-1.85,3.12-.12.69.35,3.01-.12,3.82-.46.81-1.85,2.2-2.31,2.66s-2.08,2.08-3.35,2.43c-1.27.35-4.22.06-4.22.06Z"/>
      <path class="cls-1" d="m447.65,195.87c-.46.07-3.93.92-4.86,1.27-.92.35-1.62.46-1.62-1.27s-.12-3.35,0-4.74c.12-1.39-2.2-5.09-1.85-5.9.35-.81,1.04-2.08,2.08-1.97,1.04.12,1.7.79,2.06,0,.36-.8.33-3.69,1.41-4.73s5.43-1.85,5.32-2.54c-.12-.69-.5-1.05.27-1.6.77-.56,1.93-1.06,2.77-1.29.85-.23,1.19-1.5,1.35-1.97.15-.46,5.09-4.05,5.95-4.68.87-.64,1.1-1.97,1.5-2.31.4-.35,1.45-.52,1.91-.69.46-.17,2.31-2.49,2.43-3.3.12-.81-1.04-3.93,0-4.62,1.04-.69,7.86-8.32,8.32-9.83.46-1.5-.12-2.31,1.16-3.58,1.27-1.27,5.67-3.35,6.71-6.01,1.04-2.66,3.93-5.2,4.05-7.05.12-1.85-1.16-3.24,0-3.93,1.16-.69,5.67-7.37,6.13-8.71.46-1.35,1.16-2.62,2.31-3.31,1.16-.69,2.89-2.78,3.82-2.08.92.69,2.08,2.54,2.89,3.01.81.46,2.08.92,2.43,1.16.35.23,1.39,3.35,1.39,3.35l5.55,2.2,2.54,1.5s3.58-.81,4.39-.69c.81.12,2.66.81,2.66,1.16s-.93,1.85-.58,2.08c.35.23,2.08,1.04,2.2.35.12-.69-1.39-3.24,0-3.58,1.39-.35,4.16-.77,5.16-1.62,1-.85,2.85-2.77,3.16-2.39.31.39.31.77-.54,1.7-.85.92-1.62,4.62-2.24,5.7-.62,1.08-2.7,4.39-3.7,4.01-1-.39-1.93-2.62-3.08-2.54-1.16.08-1.62.54-2.62,1-1,.46-2.7,1.39-3.08,2.08-.39.69-.15,1.46-.92,2.31-.77.85-4.16,3.31-4.24,3.78-.08.46.85.62-.15,1.31-1,.69-6.94,1.39-8.25,1.54-1.31.15-6.55.39-6.55.39,0,0-3.01,2.39-3.62,3.24-.62.85-1.39,3.39-2,4.39-.62,1-1,1.85-2,2.08-1,.23-2.62.23-3.24.62-.62.39-5.67,4.43-6.59,6.28-.92,1.85-2.31,6.24-2.31,7.28s.87,1.1,1.1,1.62c.23.52.98,1.1-.06,1.1s-1.33-.23-1.85-.69c-.52-.46-.17-1.04-.93-.75-.75.29-2.77,3.3-3.35,4.68-.58,1.39-.87,1.68-.4,2.37.46.69.75.64.4,1.39-.35.75.27,1.31-2.43,2.7-2.7,1.39-6.09,3.16-6.94,2.77-.85-.39-1.16-.85-1.62-.69-.46.15-2.62,2.08-3.08,2.77-.46.69-2.62,2.24-3.01,3.62-.39,1.39.12,5.05.04,5.67-.08.62-.15,3.82-.27,4.43-.12.62-.35,3.62-.73,3.68s-.5-.09-.96-.48c-.46-.39-1.85-.96-2.12-.96s-1.22-.1-1.66-.04Z"/>
      <path class="cls-1" d="m551.01,106.57c-.31.46,0,4.47,0,4.47,0,0,1.85,4.17.77,4.93s-3.85,2.75-3.85,2.75c0,0-1.54,1.1-2.16,2.64-.62,1.54-1.7,5.24-.92,5.86.77.62,3.85,2,5.24,2.16,1.39.15,2.93-.46,3.85-2,.92-1.54,2.93-7.6,3.85-8.66.93-1.06,6.47-5.68,9.1-4.91,2.62.77,2.31,2,4.93,0,2.62-2,4.01-2.62,4.47-4.47.46-1.85.31-2.77,1.23-4.01.92-1.23,3.55-3.85,4.16-5.4.62-1.54,1.08-3.08,2.16-3.24,1.08-.15,2.16.15,2.47-1.08.31-1.23-.31-3.55,2.31-4.16,2.62-.62,5.7-1.23,6.17-2,.46-.77-.15-3.08,1.7-3.08s2.62-.46,4.16-1.39c1.54-.93,2.31-4.01,2.93-5.24.62-1.23,2.93-3.7,3.39-4.47.46-.77-1.7-.31-2.16-2-.46-1.7-.62-4.78.77-5.86,1.39-1.08,4.47-3.39,5.86-2.47,1.39.92,1.7,2.93,2.16,3.55.46.62,2,2.93,3.85,2.77,1.85-.15,3.39-1.7,4.93-1.7s1.08.77,2.93.92c1.85.15,1.23,0,2.47-.92,1.23-.93-.46-2,2.16-2.31,2.62-.31,10.33-10.02,11.41-11.56,1.08-1.54,4.01-5.7,5.86-5.7s1.39,2.31,3.24,0c1.85-2.31,2.16-3.7,3.55-4.16,1.39-.46,1.54-1.85,3.24-2.77,1.7-.92,3.08-1.39,5.4-1.39s6.32-3.39,8.17-3.55c1.85-.15,2,2,3.7,0,1.7-2,1.54-4.78,3.85-5.7,2.31-.93,10.48-4.47,13.1-3.85,2.62.62,7.25,1.7,8.63.77,1.39-.92,3.24-4.78,3.08-6.47-.15-1.7-5.24-3.55-3.55-5.7s2.02-3.24,3.55-4.16c1.53-.92,3.69-3.39,1.07-4.78-2.62-1.39-5.86-4.01-7.86-3.85-2,.15-8.02,2-8.48,1.85-.46-.15-2.93,1.23-2.93,1.23,0,0-1.54,2.77-2.16,3.39-.62.62-3.85,4.78-4.78,4.93s-5.7,3.7-5.86,4.62c-.15.93.77,2.93-.31,4.01-1.08,1.08-7.25,6.63-8.63,8.02-1.39,1.39-7.09,4.16-10.17,4.78-3.08.62-14.03.46-15.42-.46-1.39-.92-2.16-6.17-3.39-8.48-1.23-2.31-3.08-10.64-4.16-10.64s-2.47.46-3.08,1.08c-.62.62-4.47,8.17-4.01,12.02.46,3.85.92,4.78,1.39,5.86s1.73,2.77.63,3.85c-1.1,1.08-1.41,1.54-2.79,1.85-1.39.31-7.09-.46-8.02,1.39-.92,1.85-3.85,5.24-3.85,6.94s-.15,4.32-.77,5.24c-.62.93-3.08,1.7-4.16,1.39-1.08-.31-4.32-3.39-5.24-3.55-.93-.15-3.85-.92-4.16,0-.31.93,1.39,1.23,1.54,2,.15.77-.77,2.47-.93,3.55-.15,1.08,1.85,5.24.31,5.86-1.54.62-2.62,1.08-4.78,3.39-2.16,2.31-7.4,7.55-9.4,8.63-2,1.08-5.09,1.08-5.7,2.62s-.62,6.63-2.47,7.4c-1.85.77-2.77,1.23-3.08.62-.31-.62-1.39-2.93-3.08-2.93s-3.85,0-4.32.92-1.23,2.62-.31,3.55c.92.93,2.31,2.16,4.01,2.31,1.7.15,3.55.46,3.7,1.85.15,1.39.15,4.78-.46,5.4-.62.62-5.55,5.86-6.47,6.17-.92.31-2.62-1.54-4.01-1.85-1.39-.31-3.24-1.08-3.55-.31-.31.77-1.7,1.08,0,2,1.7.92,1.85,0,1.85,2s-.15,3.55-.93,4.16c-.77.62-2.31,2-3.39.46-1.08-1.54-1.08-3.55-1.39-4.16-.31-.62-2.16-.77-2.16-.77Z"/>
    </g>
    <text class="cls-2" transform="translate(199.64 237.79)"><tspan x="0" y="0">北海道</tspan></text>
  </g>
</svg>