<?xml version="1.0" encoding="UTF-8"?>
<svg id="Layer_2" data-name="Layer 2" xmlns="http://www.w3.org/2000/svg" viewBox="0 0 68 50.89">
  <defs>
    <style>
      .cls-1 {
        fill: #fff;
      }
    </style>
  </defs>
  <g id="_レイヤー_5" data-name="レイヤー 5">
    <g>
      <path class="cls-1" d="m20.16,45.11c-.14.51.17.92.7.92h9.34c.53,0,1.07-.42,1.22-.92l1.03-3.7c.14-.51-.17-.92-.7-.92h-9.34c-.53,0-1.07.42-1.22.92l-1.03,3.7Z"/>
      <path class="cls-1" d="m55.58,0c-.53,0-1.08.41-1.22.92l-.94,3.29c-.15.51-.7.92-1.22.92h-.25c-.53,0-1.08.42-1.22.92l-1.89,6.74c-.14.51.17.92.7.92h2.6c.53,0,1.08-.42,1.22-.92l.18-.66c.14-.51.69-.92,1.22-.92h9.34c.53,0,1.08-.42,1.22-.92l2.65-9.37c.14-.51-.17-.92-.7-.92h-11.69Z"/>
      <path class="cls-1" d="m9.41,31.77c-.53,0-1.08.42-1.22.92l-1,3.56c-.14.51.17.92.7.92h1.45c.53,0,.84.42.7.92l-1.96,7.02c-.14.51.17.92.7.92h7.36c.53,0,1.08-.42,1.22-.92l3.48-12.42c.14-.51-.17-.92-.7-.92h-10.72Z"/>
      <path class="cls-1" d="m43.62,30.84c-.14.51-.69.92-1.22.92h-17.55c-.53,0-1.08.42-1.22.92l-1.18,4.23c-.14.51.17.92.7.92h12.57c.53,0,.84.42.7.92l-1.78,6.35c-.14.51.17.92.7.92h7.29c.53,0,1.08-.42,1.22-.92l.66-2.36c.14-.51.69-.92,1.22-.92h1.78c.53,0,.84.42.7.92l-.66,2.36c-.14.51.17.92.7.92h3.3c.53,0,1.08-.42,1.22-.92l7.78-27.78c.14-.51-.17-.92-.7-.92h-11.22c-.53,0-1.08.42-1.22.92l-3.78,13.51Z"/>
      <path class="cls-1" d="m.03,49.97c-.14.51.17.92.7.92h1.6c.53,0,1.08-.42,1.22-.92l.75-2.7c.14-.51-.17-.92-.7-.92h-1.6c-.53,0-1.08.42-1.22.92l-.75,2.7Z"/>
    </g>
  </g>
</svg>