<?xml version="1.0" encoding="UTF-8"?>
<svg id="Layer_2" data-name="Layer 2" xmlns="http://www.w3.org/2000/svg" viewBox="0 0 103 83.39">
  <defs>
    <style>
      .cls-1 {
        fill: #8fc31f;
      }
    </style>
  </defs>
  <g id="_ヘッダー" data-name="ヘッダー">
    <g>
      <path class="cls-1" d="M52.15,16.7c4.61,0,8.35-3.74,8.35-8.35S56.77,0,52.15,0s-8.35,3.74-8.35,8.35,3.74,8.35,8.35,8.35Z"/>
      <path class="cls-1" d="M52.15,18.89c-7.49,0-9.66,8.18-9.66,15.88h19.32c0-7.7-2.16-15.88-9.66-15.88Z"/>
      <path class="cls-1" d="M9.51,68.66c-2.2-2.2-3.55-5.21-3.55-8.54v-12.43H0v12.43c0,9.97,8.09,18.05,18.06,18.06h8.16v-5.97h-8.16c-3.34,0-6.34-1.35-8.54-3.55Z"/>
      <path class="cls-1" d="M17.29,31.05c4.35,0,7.88-3.52,7.88-7.88s-3.52-7.88-7.88-7.88-7.88,3.53-7.88,7.88,3.53,7.88,7.88,7.88Z"/>
      <path class="cls-1" d="M36.04,57.89h-11.05v-16.45c0-4.26-3.45-7.71-7.71-7.71s-7.71,3.45-7.71,7.71v18.74c0,4.26,3.45,7.71,7.71,7.71,.58,0,14.09-.04,14.09-.04l.74,11.4c.05,2.34,1.99,4.19,4.32,4.14,2.34-.05,4.19-1.99,4.14-4.33l.45-16.2c0-2.75-2.23-4.98-4.98-4.98Z"/>
      <path class="cls-1" d="M97.03,47.68v12.43c0,3.34-1.35,6.34-3.55,8.54-2.2,2.2-5.2,3.55-8.54,3.55h-8.16v5.97h8.16c9.96,0,18.05-8.09,18.06-18.06v-12.43h-5.97Z"/>
      <path class="cls-1" d="M85.72,31.05c4.35,0,7.88-3.52,7.88-7.88s-3.53-7.88-7.88-7.88-7.88,3.53-7.88,7.88,3.52,7.88,7.88,7.88Z"/>
      <path class="cls-1" d="M93.42,60.18v-18.74c0-4.26-3.45-7.71-7.71-7.71s-7.71,3.45-7.71,7.71v16.45h-11.05c-2.75,0-4.98,2.22-4.98,4.98l.45,16.2c-.06,2.34,1.8,4.27,4.14,4.33,2.33,.05,4.27-1.8,4.32-4.14l.74-11.4s13.51,.04,14.09,.04c4.26,0,7.71-3.45,7.71-7.71Z"/>
      <polygon class="cls-1" points="73.64 50.69 67.08 38.99 37.47 38.99 30.91 50.69 30.91 55.03 73.64 55.03 73.64 50.69"/>
      <rect class="cls-1" x="49.1" y="58.93" width="4.97" height="17.6"/>
    </g>
  </g>
</svg>