<?xml version="1.0" encoding="UTF-8"?>
<svg id="Layer_2" data-name="Layer 2" xmlns="http://www.w3.org/2000/svg" viewBox="0 0 50.01 45.31">
  <defs>
    <style>
      .cls-1 {
        fill: #fff;
      }
    </style>
  </defs>
  <g id="_ヘッダー" data-name="ヘッダー">
    <g>
      <polygon class="cls-1" points="36.54 41.99 3.32 41.99 3.32 17.11 16.11 17.11 16.11 4.32 36.54 4.32 36.54 7.59 39.86 4.4 39.86 1 16.11 1 3.32 13.78 0 17.11 0 45.31 39.86 45.31 39.86 25.75 36.54 29.21 36.54 41.99"/>
      <path class="cls-1" d="M49.68,5.34L44.66,.33c-.44-.44-1.16-.44-1.6,0L21.9,20.66c-.13,.13-.23,.29-.28,.47l-2.56,8.41c-.26,.87,.55,1.67,1.41,1.41l8.68-2.64L49.68,6.94c.44-.44,.44-1.16,0-1.6ZM23.83,27.86l-1.65-1.8,1.14-3.76,2.85,1.53,1.53,2.85-3.87,1.18ZM46.49,4.54L28.46,22.69l-1.15-1.15L45.46,3.51l1.03,1.03h0Z"/>
    </g>
  </g>
</svg>