<?xml version="1.0" encoding="UTF-8"?>
<svg id="Layer_2" data-name="Layer 2" xmlns="http://www.w3.org/2000/svg" viewBox="0 0 53.61 46.71">
  <defs>
    <style>
      .cls-1 {
        fill: #fff;
      }
    </style>
  </defs>
  <g id="_ヘッダー" data-name="ヘッダー">
    <g>
      <path class="cls-1" d="m8.53,8.8c2.43,0,4.4-1.97,4.4-4.4S10.96,0,8.53,0s-4.4,1.97-4.4,4.4,1.97,4.4,4.4,4.4Z"/>
      <path class="cls-1" d="m23.47,22.21c0-.09-.01-.18-.03-.26l6.57-4.77c.41-.3.51-.88.21-1.29-.17-.24-.45-.38-.75-.38-.2,0-.38.06-.54.18l-6.58,4.78c-.24-.11-.51-.18-.8-.18h-3.58l-.87-4.94c-.48-2.49-1.48-4.45-3.61-4.45H4.45c-2.13,0-4.45,2.32-4.45,4.45v14.78c0,1.07.86,1.93,1.93,1.93h1.35l.73,12.61c0,1.13.92,2.05,2.05,2.05h4.11c1.13,0,2.05-.92,2.05-2.05l.96-24.97h.05l.55,2.44c.18,1.16,1.18,2.02,2.36,2.02h5.4c1.07,0,1.93-.86,1.93-1.93Zm-16.35-2.74v-7.03h2.53v7.03l-1.34,1.58-1.18-1.58Z"/>
      <polygon class="cls-1" points="19.93 1.52 19.93 17.58 22.45 17.58 22.45 4.05 51.08 4.05 51.08 28.18 22.45 28.18 22.45 25.15 19.93 25.15 19.93 30.71 53.61 30.71 53.61 1.52 19.93 1.52"/>
      <path class="cls-1" d="m32.65,37.24c0-1.97-1.6-3.56-3.56-3.56s-3.56,1.59-3.56,3.56,1.6,3.56,3.56,3.56,3.56-1.6,3.56-3.56Z"/>
      <path class="cls-1" d="m29.08,42.71c-2.54,0-4.7,1.67-5.53,4h11.05c-.83-2.33-2.99-4-5.53-4Z"/>
      <path class="cls-1" d="m48.01,37.24c0-1.97-1.6-3.56-3.56-3.56s-3.56,1.59-3.56,3.56,1.6,3.56,3.56,3.56,3.56-1.6,3.56-3.56Z"/>
      <path class="cls-1" d="m44.45,42.71c-2.54,0-4.7,1.67-5.53,4h11.05c-.83-2.33-2.99-4-5.53-4Z"/>
    </g>
  </g>
</svg>