<?xml version="1.0" encoding="UTF-8"?>
<svg id="Layer_2" data-name="Layer 2" xmlns="http://www.w3.org/2000/svg" viewBox="0 0 56.53 36.44">
  <defs>
    <style>
      .cls-1 {
        fill: #fff;
      }
    </style>
  </defs>
  <g id="_レイヤー_5" data-name="レイヤー 5">
    <path class="cls-1" d="m56.47,13.16l-3.41-12.06c-.23-.8-1.07-1.27-1.87-1.04l-7.41,2.09c-.44.13-.79.44-.96.83l-6.62.38-7.7-2.2c-1.05-.3-2.18-.1-3.07.54l-1.11.8-10.63.47c-.18-.39-.52-.69-.96-.82L5.33.06c-.8-.23-1.64.24-1.87,1.04L.06,13.16c-.23.8.24,1.64,1.04,1.87l7.41,2.09c.41.11.82.05,1.16-.15l1.75,1.78-1.45,1.27c-.67.58-1.07,1.39-1.13,2.28s.23,1.74.81,2.41c.63.72,1.55,1.14,2.51,1.14.01,0,.02,0,.04,0-.04.86.25,1.68.81,2.33.63.72,1.55,1.14,2.51,1.14,0,0,.01,0,.02,0-.04.87.24,1.7.81,2.35.63.72,1.55,1.14,2.51,1.14.11,0,.23,0,.34-.02.24-.02.48-.08.7-.15.1.61.36,1.19.78,1.67.63.72,1.55,1.14,2.51,1.14.11,0,.23,0,.34-.02.69-.07,1.32-.35,1.85-.8l.89-.77.95.97.49.51c.63.66,1.47,1.05,2.37,1.11,0,0,0,0,0,0,.04,0,.09,0,.13,0,.02,0,.05,0,.07,0,.01,0,.02,0,.04,0,.02,0,.03,0,.05,0,.04,0,.07,0,.11,0,.02,0,.03,0,.05,0,.05,0,.09,0,.14-.01,0,0,.01,0,.02,0,.78-.07,1.55-.4,2.16-.99.5-.48.85-1.09,1.01-1.76.21.06.43.1.65.12.02,0,.04,0,.05,0,.05,0,.1,0,.14,0,.04,0,.08,0,.12,0,.01,0,.03,0,.04,0,.03,0,.07,0,.1,0,.02,0,.04,0,.07,0,.06,0,.12,0,.18-.01.04,0,.08,0,.13-.02.02,0,.04,0,.06,0,.05,0,.1-.02.15-.02,0,0,.01,0,.02,0,.66-.13,1.29-.44,1.81-.94.63-.6,1.02-1.41,1.1-2.27.19.03.39.05.58.05,0,0,.01,0,.02,0,.03,0,.05,0,.08,0,.03,0,.07,0,.1,0,.04,0,.08,0,.12,0,.02,0,.04,0,.06,0,.05,0,.09-.01.14-.02,0,0,.01,0,.02,0,.72-.1,1.42-.42,1.98-.97.56-.53.92-1.22,1.06-1.97.22.06.44.1.66.12,0,0,.01,0,.02,0,.05,0,.1,0,.15,0,.03,0,.07,0,.1,0,0,0,.02,0,.03,0,.05,0,.1,0,.14,0,.04,0,.07,0,.11,0,.04,0,.07,0,.11,0,.04,0,.08,0,.13-.02.02,0,.04,0,.06,0,.72-.11,1.41-.43,1.97-.96.85-.81,1.25-1.99,1.08-3.16-.11-.74-.45-1.43-.97-1.97l-1.54-1.57,2.27-3.03c.32.15.7.2,1.06.1l7.41-2.09c.8-.23,1.27-1.07,1.04-1.87ZM12.16,23.94c-.41,0-.79-.17-1.06-.48-.25-.28-.37-.65-.34-1.02.03-.38.2-.72.48-.97l3.81-3.33c.28-.24.58-.32.78-.34.05,0,.1,0,.15,0,.41,0,.79.17,1.06.48.25.28.37.65.34,1.02s-.2.72-.48.97l-3.81,3.33c-.28.24-.58.32-.78.34-.05,0-.1,0-.15,0Zm3.36,3.47c-.41,0-.79-.17-1.06-.48-.25-.28-.37-.65-.34-1.02.03-.38.2-.72.48-.97l3.81-3.33c.28-.24.58-.32.78-.34.05,0,.1,0,.15,0,.41,0,.79.17,1.06.48.25.28.37.65.34,1.02-.03.38-.2.72-.48.97l-3.81,3.33c-.28.24-.58.32-.78.34-.05,0-.1,0-.15,0Zm3.49,3.48s-.1,0-.15,0c-.41,0-.79-.17-1.06-.48-.25-.28-.37-.65-.34-1.02.03-.38.2-.72.48-.97l3.81-3.33c.28-.24.58-.32.78-.34.05,0,.1,0,.15,0,.41,0,.79.17,1.06.48.51.59.45,1.48-.13,1.99l-3.81,3.33c-.28.24-.58.32-.78.34Zm5.11,2.29c-.28.24-.58.32-.78.34-.05,0-.1,0-.15,0-.41,0-.79-.17-1.06-.48-.51-.59-.45-1.48.13-1.99l2.78-2.42c.28-.24.58-.32.78-.34.05,0,.1,0,.15,0,.41,0,.79.17,1.06.48.51.59.45,1.48-.13,1.99l-2.78,2.42Zm19.49-7.44h0s-.07,0-.11,0c0,0,0,0,0,0-.11,0-.22-.03-.33-.06l-.08-.02c-.25-.08-.48-.22-.66-.41l-1.51-1.57c-.18-.18-.41-.28-.65-.28-.18,0-.36.05-.52.16l-.17.12c-.22.15-.36.39-.38.66s.07.53.25.72l.78.81c.29.31.4.64.43.87.08.53-.09,1.03-.48,1.4-.26.25-.6.4-.96.44-.05,0-.1,0-.15,0-.04,0-.07,0-.11,0,0,0-.02,0-.03,0-.04,0-.08,0-.12-.01-.03,0-.06,0-.09-.01-.31-.07-.61-.23-.83-.46l-1.33-1.38c-.18-.18-.41-.28-.65-.28-.18,0-.36.05-.52.16l-.19.13c-.22.15-.36.39-.38.66s.07.53.25.72l.95.98c.29.31.4.64.43.87.08.53-.09,1.03-.48,1.4-.26.25-.59.4-.95.44-.05,0-.1,0-.15,0-.15,0-.31-.02-.46-.06l-.08-.02c-.24-.08-.46-.22-.64-.41l-.14-.15c-.16-.31-.37-.6-.61-.85l-.62-.64c-.18-.18-.41-.28-.65-.28-.18,0-.36.05-.52.16l-.17.12c-.22.15-.36.39-.38.66-.03.26.07.53.25.72l.63.66c.17.17.29.37.36.6.03.09.05.19.07.28.08.53-.09,1.03-.48,1.4-.26.25-.6.4-.96.44-.05,0-.1,0-.15,0-.45,0-.86-.18-1.16-.5l-1.38-1.4.37-.32c1.38-1.21,1.52-3.31.32-4.69-.63-.72-1.53-1.13-2.49-1.14.06-.89-.23-1.74-.81-2.41-.63-.72-1.55-1.14-2.51-1.14,0,0-.01,0-.02,0,.04-.83-.23-1.68-.81-2.35-.63-.72-1.55-1.14-2.51-1.14-.01,0-.02,0-.04,0,.04-.82-.23-1.66-.81-2.33-.63-.72-1.55-1.14-2.51-1.14-.11,0-.23,0-.34.02-.69.07-1.32.35-1.85.8l-.84.73-2.27-2.31s-.01-.03-.02-.05l2.85-10.08,7.83-.35-1.05.76c-1.6,1.15-1.97,3.39-.81,4.99.7.97,1.79,1.49,2.91,1.49.72,0,1.45-.22,2.09-.67l3.74-2.69,3.62,1.31,12.93,13.19c.29.31.4.64.43.87.08.53-.09,1.03-.48,1.4-.26.25-.59.4-.95.44-.05,0-.1,0-.15,0Zm-.35-7.15l-10.31-10.51-4.34-1.57-.71-.26-4.61,3.31c-.27.19-.58.29-.91.29-.51,0-.97-.24-1.27-.65-.24-.34-.34-.75-.27-1.16.07-.41.29-.77.63-1.02l3.55-2.56,1.59-1.15c.27-.19.58-.29.91-.29.14,0,.29.02.43.06l8.03,2.29,7.04-.4,2.86,10.11-2.62,3.49Z"/>
  </g>
</svg>