<?xml version="1.0" encoding="UTF-8"?>
<svg id="Layer_2" data-name="Layer 2" xmlns="http://www.w3.org/2000/svg" viewBox="0 0 59.71 48.22">
  <defs>
    <style>
      .cls-1 {
        fill: #fff;
      }
    </style>
  </defs>
  <g id="_レイヤー_5" data-name="レイヤー 5">
    <g>
      <path class="cls-1" d="m42.15,40.6h-4.76l-1.07-4.87h-11.79l-1.07,4.87h-4.76c-.55,0-1,.45-1,1v2.13c0,.55.45,1,1,1h23.45c.55,0,1-.45,1-1v-2.13c0-.55-.45-1-1-1Z"/>
      <path class="cls-1" d="m.21,43.94c-.48.93-.11,2.09.82,2.57l2.92,1.5c.93.48,2.09.11,2.57-.82l14.25-26.11,4.19-.06c.45,0,.99-.34,1.2-.74l3.13-6.08c.21-.4.17-1.04-.09-1.41l-2.38-3.43-2.73,5.31-3.97-.08-2.37-3.19,2.73-5.31-4.17.06c-.45,0-.99.34-1.2.74l-3.13,6.08c-.21.4-.17,1.04.09,1.41l2.39,3.44L.21,43.94Z"/>
      <path class="cls-1" d="m57.91,36.01H2.91c-.99,0-1.8-.81-1.8-1.8V1.8c0-.99.81-1.8,1.8-1.8h54.99c.99,0,1.8.81,1.8,1.8v32.41c0,.99-.81,1.8-1.8,1.8Zm-53.19-3.6h51.39V3.6H4.71v28.81Z"/>
    </g>
  </g>
</svg>